<svg id="visual" viewBox="0 0 900 600" width="900" height="600" xmlns="http://www.w3.org/2000/svg" xmlns:xlink="http://www.w3.org/1999/xlink" version="1.1"><path d="M0 128L30 133.2C60 138.3 120 148.7 180 153.7C240 158.7 300 158.3 360 152.7C420 147 480 136 540 138.7C600 141.3 660 157.7 720 162.7C780 167.7 840 161.3 870 158.2L900 155L900 0L870 0C840 0 780 0 720 0C660 0 600 0 540 0C480 0 420 0 360 0C300 0 240 0 180 0C120 0 60 0 30 0L0 0Z" fill="#b2c5a4" stroke-linecap="round" stroke-linejoin="miter"></path></svg>