<svg id="visual" viewBox="0 0 900 600" width="900" height="600" xmlns="http://www.w3.org/2000/svg" xmlns:xlink="http://www.w3.org/1999/xlink" version="1.1"><path d="M0 31L50 19L100 7L150 25L200 19L250 19L300 13L350 37L400 25L450 25L500 31L550 7L600 19L650 7L700 25L750 19L800 25L850 19L900 37L900 0L850 0L800 0L750 0L700 0L650 0L600 0L550 0L500 0L450 0L400 0L350 0L300 0L250 0L200 0L150 0L100 0L50 0L0 0Z" fill="#ebf1e4"></path><path d="M0 61L50 37L100 31L150 43L200 31L250 55L300 31L350 55L400 55L450 55L500 61L550 13L600 49L650 37L700 37L750 43L800 43L850 55L900 49L900 35L850 17L800 23L750 17L700 23L650 5L600 17L550 5L500 29L450 23L400 23L350 35L300 11L250 17L200 17L150 23L100 5L50 17L0 29Z" fill="#e7efdf"></path><path d="M0 91L50 55L100 73L150 73L200 61L250 91L300 67L350 73L400 67L450 67L500 91L550 31L600 73L650 55L700 55L750 67L800 55L850 79L900 67L900 47L850 53L800 41L750 41L700 35L650 35L600 47L550 11L500 59L450 53L400 53L350 53L300 29L250 53L200 29L150 41L100 29L50 35L0 59Z" fill="#e4edda"></path><path d="M0 121L50 121L100 103L150 169L200 163L250 187L300 133L350 163L400 127L450 91L500 199L550 91L600 145L650 121L700 151L750 115L800 169L850 139L900 115L900 65L850 77L800 53L750 65L700 53L650 53L600 71L550 29L500 89L450 65L400 65L350 71L300 65L250 89L200 59L150 71L100 71L50 53L0 89Z" fill="#e0ead5"></path><path d="M0 319L50 283L100 199L150 241L200 283L250 271L300 181L350 259L400 253L450 247L500 337L550 211L600 259L650 271L700 229L750 235L800 313L850 217L900 301L900 113L850 137L800 167L750 113L700 149L650 119L600 143L550 89L500 197L450 89L400 125L350 161L300 131L250 185L200 161L150 167L100 101L50 119L0 119Z" fill="#dce8d0"></path><path d="M0 361L50 301L100 223L150 283L200 301L250 319L300 199L350 295L400 271L450 301L500 367L550 259L600 277L650 295L700 271L750 271L800 349L850 265L900 349L900 299L850 215L800 311L750 233L700 227L650 269L600 257L550 209L500 335L450 245L400 251L350 257L300 179L250 269L200 281L150 239L100 197L50 281L0 317Z" fill="#d8e6cb"></path><path d="M0 427L50 439L100 427L150 427L200 361L250 445L300 349L350 397L400 367L450 373L500 415L550 385L600 385L650 451L700 355L750 427L800 415L850 379L900 391L900 347L850 263L800 347L750 269L700 269L650 293L600 275L550 257L500 365L450 299L400 269L350 293L300 197L250 317L200 299L150 281L100 221L50 299L0 359Z" fill="#d4e4c6"></path><path d="M0 463L50 463L100 475L150 451L200 421L250 499L300 397L350 421L400 397L450 433L500 445L550 397L600 403L650 469L700 409L750 445L800 451L850 439L900 421L900 389L850 377L800 413L750 425L700 353L650 449L600 383L550 383L500 413L450 371L400 365L350 395L300 347L250 443L200 359L150 425L100 425L50 437L0 425Z" fill="#d0e2c1"></path><path d="M0 475L50 493L100 487L150 481L200 445L250 541L300 439L350 469L400 439L450 457L500 457L550 433L600 421L650 493L700 457L750 457L800 469L850 481L900 463L900 419L850 437L800 449L750 443L700 407L650 467L600 401L550 395L500 443L450 431L400 395L350 419L300 395L250 497L200 419L150 449L100 473L50 461L0 461Z" fill="#cce0bc"></path><path d="M0 499L50 505L100 499L150 505L200 469L250 559L300 481L350 511L400 475L450 499L500 475L550 475L600 457L650 517L700 487L750 493L800 487L850 493L900 481L900 461L850 479L800 467L750 455L700 455L650 491L600 419L550 431L500 455L450 455L400 437L350 467L300 437L250 539L200 443L150 479L100 485L50 491L0 473Z" fill="#c8deb7"></path><path d="M0 559L50 541L100 529L150 565L200 559L250 583L300 559L350 583L400 535L450 541L500 571L550 553L600 535L650 565L700 541L750 547L800 571L850 535L900 541L900 479L850 491L800 485L750 491L700 485L650 515L600 455L550 473L500 473L450 497L400 473L350 509L300 479L250 557L200 467L150 503L100 497L50 503L0 497Z" fill="#c4dcb3"></path><path d="M0 601L50 601L100 601L150 601L200 601L250 601L300 601L350 601L400 601L450 601L500 601L550 601L600 601L650 601L700 601L750 601L800 601L850 601L900 601L900 539L850 533L800 569L750 545L700 539L650 563L600 533L550 551L500 569L450 539L400 533L350 581L300 557L250 581L200 557L150 563L100 527L50 539L0 557Z" fill="#c0daae"></path></svg>