<svg id="visual" viewBox="0 0 900 600" width="900" height="600" xmlns="http://www.w3.org/2000/svg" xmlns:xlink="http://www.w3.org/1999/xlink" version="1.1"><path d="M0 127L100 127L200 43L300 67L400 121L500 61L600 61L700 85L800 43L900 121L900 0L800 0L700 0L600 0L500 0L400 0L300 0L200 0L100 0L0 0Z" fill="#ebf1e4"></path><path d="M0 175L100 235L200 283L300 199L400 343L500 385L600 151L700 307L800 169L900 175L900 119L800 41L700 83L600 59L500 59L400 119L300 65L200 41L100 125L0 125Z" fill="#e2ead9"></path><path d="M0 199L100 259L200 343L300 277L400 409L500 409L600 175L700 361L800 241L900 217L900 173L800 167L700 305L600 149L500 383L400 341L300 197L200 281L100 233L0 173Z" fill="#d8e2ce"></path><path d="M0 265L100 301L200 451L300 295L400 469L500 427L600 235L700 403L800 331L900 247L900 215L800 239L700 359L600 173L500 407L400 407L300 275L200 341L100 257L0 197Z" fill="#cfdbc3"></path><path d="M0 337L100 361L200 523L300 367L400 493L500 505L600 265L700 433L800 361L900 307L900 245L800 329L700 401L600 233L500 425L400 467L300 293L200 449L100 299L0 263Z" fill="#c5d4b9"></path><path d="M0 391L100 397L200 565L300 403L400 547L500 529L600 301L700 529L800 451L900 397L900 305L800 359L700 431L600 263L500 503L400 491L300 365L200 521L100 359L0 335Z" fill="#bcccae"></path><path d="M0 601L100 601L200 601L300 601L400 601L500 601L600 601L700 601L800 601L900 601L900 395L800 449L700 527L600 299L500 527L400 545L300 401L200 563L100 395L0 389Z" fill="#b2c5a4"></path></svg>